<svg width="142" height="46" viewBox="0 0 142 46" fill="none" xmlns="http://www.w3.org/2000/svg">
<path d="M131.103 33.6144C128.536 33.6144 126.376 33.2263 124.624 32.45C122.873 31.6538 121.549 30.4695 120.653 28.897C119.778 27.3245 119.34 25.3539 119.34 22.9852C119.34 19.5416 120.345 16.9141 122.355 15.1028C124.386 13.2914 127.302 12.3857 131.103 12.3857C133.213 12.3857 135.084 12.7142 136.717 13.371C138.369 14.008 139.653 14.9435 140.568 16.1776C141.504 17.4118 141.972 18.9146 141.972 20.6861H137.135C137.135 19.7506 136.876 18.9644 136.358 18.3274C135.861 17.6705 135.154 17.1729 134.239 16.8345C133.323 16.4762 132.258 16.2971 131.044 16.2971C129.63 16.2971 128.426 16.5459 127.431 17.0435C126.436 17.5411 125.679 18.2577 125.162 19.1933C124.644 20.1288 124.386 21.2534 124.386 22.5672V23.4032C124.386 24.7169 124.644 25.8515 125.162 26.8069C125.679 27.7425 126.426 28.459 127.401 28.9567C128.396 29.4543 129.611 29.7031 131.044 29.7031C132.338 29.7031 133.442 29.5439 134.358 29.2254C135.293 28.887 136.01 28.3993 136.508 27.7624C137.025 27.1055 137.284 26.3093 137.284 25.3738H141.972C141.972 27.1254 141.514 28.6183 140.598 29.8524C139.702 31.0666 138.438 32.0021 136.806 32.659C135.174 33.296 133.273 33.6144 131.103 33.6144Z" fill="#212121"/>
<path d="M71.7563 33.256V12.7439H86.4164C87.9093 12.7439 89.1334 13.0325 90.0889 13.6098C91.0642 14.187 91.7907 14.9633 92.2685 15.9387C92.7462 16.914 92.985 18.0088 92.985 19.223C92.985 20.4969 92.6765 21.6613 92.0595 22.7163C91.4424 23.7514 90.5268 24.5675 89.3126 25.1646L93.5523 33.256H88.0586L84.4458 26.0006H76.6828V33.256H71.7563ZM76.6828 22.149H85.2221C86.078 22.149 86.7448 21.8903 87.2225 21.3727C87.7202 20.8552 87.969 20.1685 87.969 19.3126C87.969 18.7552 87.8595 18.2775 87.6406 17.8794C87.4415 17.4813 87.133 17.1827 86.715 16.9837C86.297 16.7647 85.7993 16.6552 85.2221 16.6552H76.6828V22.149Z" fill="#212121"/>
<path d="M95.8318 33.256V12.7439H110.492C111.985 12.7439 113.209 13.0325 114.164 13.6098C115.14 14.187 115.866 14.9633 116.344 15.9387C116.822 16.914 117.06 18.0088 117.06 19.223C117.06 20.4969 116.752 21.6613 116.135 22.7163C115.518 23.7514 114.602 24.5675 113.388 25.1646C113.388 25.1646 111.562 26.0006 108.521 26.0006C105.481 26.0006 100.758 26.0006 100.758 26.0006V33.256H95.8318ZM100.758 22.149H109.298C110.153 22.149 110.82 21.8903 111.298 21.3727C111.796 20.8552 112.044 20.1685 112.044 19.3126C112.044 18.7552 111.935 18.2775 111.716 17.8794C111.517 17.4813 111.208 17.1827 110.79 16.9837C110.372 16.7647 109.875 16.6552 109.298 16.6552H100.758V22.149Z" fill="#212121"/>
<path d="M57.5779 33.5974C55.9855 33.5974 54.5921 33.2988 53.3978 32.7017C52.2035 32.1045 51.268 31.1989 50.5912 29.9847C49.9144 28.7705 49.576 27.2378 49.576 25.3866C49.576 23.4956 49.9045 21.953 50.5613 20.7587C51.2381 19.5445 52.1637 18.6388 53.3381 18.0416C54.5125 17.4445 55.8561 17.1459 57.3689 17.1459C58.1452 17.1459 58.8916 17.2355 59.6082 17.4146C60.3447 17.5739 61.0115 17.8227 61.6086 18.1611C62.2257 18.4995 62.7532 18.9175 63.1911 19.4151H63.4001V12.757H68.028V33.2604H63.9077V30.7908H63.6688C62.9323 31.8259 62.0366 32.5524 60.9816 32.9704C59.9466 33.3884 58.812 33.5974 57.5779 33.5974ZM58.8617 29.8951C59.8371 29.8951 60.6631 29.7259 61.3399 29.3875C62.0167 29.0292 62.5342 28.5216 62.8925 27.8648C63.2508 27.2079 63.4299 26.4217 63.4299 25.506V25.2672C63.4299 24.5705 63.3304 23.9534 63.1314 23.416C62.9323 22.8587 62.6337 22.3909 62.2356 22.0127C61.8375 21.6345 61.3499 21.3459 60.7726 21.1468C60.1954 20.9478 59.5385 20.8483 58.802 20.8483C57.8466 20.8483 57.0305 21.0174 56.3537 21.3558C55.6968 21.6942 55.1893 22.1819 54.831 22.8189C54.4926 23.4558 54.3234 24.2222 54.3234 25.1179V25.6255C54.3234 26.5212 54.4926 27.2875 54.831 27.9245C55.1893 28.5615 55.7068 29.0491 56.3836 29.3875C57.0603 29.7259 57.8864 29.8951 58.8617 29.8951Z" fill="#212121"/>
<path d="M0.0285645 34.0044L6.37692 30.3364L12.7253 34.0044L6.37692 37.6723L0.0285645 34.0044Z" fill="#49FF87"/>
<path d="M6.3772 8.3645L12.7256 11.9972V34.0048L6.3772 30.3368V8.3645Z" fill="#33B05D"/>
<path d="M6.37692 8.36438L0.0285645 11.9971V34.0045L6.37692 30.3365V8.36438Z" fill="#41E278"/>
<path d="M19.0734 1.00049L19.0757 8.33231L12.725 11.9962L12.7227 4.66436L19.0734 1.00049Z" fill="#49FF87"/>
<path d="M38.105 19.3181L38.1332 12.004L19.074 1.00012L19.0759 8.33167L38.105 19.3181Z" fill="#41E278"/>
<path d="M38.1037 19.3187L31.7835 23.0002L12.7244 11.9963L12.7252 11.9948L19.0754 8.33264L38.1037 19.3187Z" fill="#33B05D"/>
<path d="M31.7849 23.0006L31.7826 30.3324L38.1333 33.9963L38.1357 26.6645L31.7849 23.0006Z" fill="#49FF87"/>
<path d="M12.7535 41.3186L19.0737 45.0001L38.1329 33.9963L31.7824 30.3325L12.7535 41.3186Z" fill="#33B05D"/>
<path d="M12.7545 41.3187L12.7263 34.0046L31.7847 23.0012L31.7823 30.3325L12.7545 41.3187Z" fill="#41E278"/>
</svg>
