<?xml version="1.0" standalone="no"?>
<!DOCTYPE svg PUBLIC "-//W3C//DTD SVG 20010904//EN"
 "http://www.w3.org/TR/2001/REC-SVG-20010904/DTD/svg10.dtd">
<svg version="1.0" xmlns="http://www.w3.org/2000/svg"
 width="640.000000pt" height="640.000000pt" viewBox="0 0 640.000000 640.000000"
 preserveAspectRatio="xMidYMid meet">

<g transform="translate(0.000000,640.000000) scale(0.100000,-0.100000)"
fill="#000000" stroke="none">
<path d="M2044 5440 c-339 -38 -611 -164 -897 -417 -301 -264 -578 -741 -691
-1188 -80 -316 -103 -719 -57 -1015 51 -334 134 -595 277 -877 149 -292 304
-504 520 -713 421 -408 974 -684 1559 -780 188 -31 512 -38 705 -16 473 55
851 196 1259 468 204 137 324 240 479 413 135 150 192 223 276 353 221 341
360 689 425 1063 75 433 32 927 -116 1340 -39 111 -191 421 -208 426 -5 1 -36
-41 -67 -95 -257 -440 -582 -659 -952 -639 -170 8 -327 74 -477 199 -125 105
-215 208 -459 528 -366 481 -564 670 -848 810 -226 111 -508 165 -728 140z
m205 -320 c389 -44 672 -242 1029 -715 417 -554 585 -726 829 -849 173 -87
302 -119 478 -119 317 -1 620 127 845 357 35 36 68 66 72 66 21 0 52 -130 79
-336 10 -81 10 -94 -6 -125 -59 -114 -261 -346 -383 -439 -99 -75 -266 -154
-407 -191 -252 -66 -535 -34 -774 89 -260 133 -343 214 -834 812 -272 332
-466 502 -712 624 -513 254 -989 230 -1454 -74 -51 -33 -95 -59 -97 -57 -9 8
137 256 206 350 259 354 582 565 925 606 99 12 110 12 204 1z m-351 -981 c242
-26 507 -153 732 -352 109 -95 175 -170 415 -467 284 -354 408 -479 613 -627
91 -65 264 -156 366 -193 315 -113 667 -111 988 5 168 61 368 186 506 318 34
33 64 58 67 55 9 -9 -24 -204 -51 -308 -33 -124 -87 -257 -138 -343 -47 -79
-182 -228 -265 -291 -416 -318 -1041 -316 -1518 3 -173 116 -296 244 -581 600
-326 409 -527 592 -785 715 -321 153 -665 179 -972 74 -180 -61 -379 -180
-522 -312 l-43 -39 0 151 c0 237 22 318 130 477 233 342 555 533 918 544 23 0
86 -4 140 -10z m-45 -1089 c335 -68 572 -256 967 -765 86 -110 252 -305 316
-370 265 -269 594 -445 954 -512 146 -28 476 -25 631 5 64 12 124 25 133 28
33 13 12 -13 -65 -81 -164 -144 -440 -310 -583 -351 -167 -47 -604 43 -904
186 -244 116 -352 201 -677 532 -269 273 -385 363 -610 476 -181 90 -364 138
-575 148 -144 8 -285 -14 -449 -67 -51 -17 -96 -27 -101 -22 -10 11 -110 268
-110 283 0 44 194 259 310 344 218 161 496 221 763 166z m-189 -1059 c161 -43
329 -131 477 -249 44 -35 177 -163 297 -283 119 -121 251 -249 292 -283 204
-171 420 -287 708 -382 45 -15 82 -31 82 -37 0 -5 -122 -7 -312 -4 -262 3
-333 8 -437 26 -680 119 -1307 521 -1674 1073 -31 47 -57 89 -57 95 0 12 58
33 155 55 113 25 356 20 469 -11z"/>
<path d="M5115 5263 c-75 -25 -158 -112 -180 -187 -34 -118 8 -241 109 -317
62 -47 119 -63 199 -57 108 9 189 65 238 163 29 59 31 71 27 137 -6 85 -29
137 -85 191 -81 79 -201 106 -308 70z"/>
<path d="M4446 4515 c-123 -44 -174 -201 -100 -308 42 -61 122 -100 190 -94
118 12 194 93 194 207 0 67 -18 107 -68 152 -62 56 -138 71 -216 43z"/>
</g>
</svg>
